<svg width="100" height="100" viewBox="0 0 100 100" fill="none" xmlns="http://www.w3.org/2000/svg">
<rect x="2" y="2" width="96" height="96" stroke="white" stroke-width="4"/>
<path d="M10.6878 75V27.666H35.1138C37.8278 27.666 40.1738 28.149 42.1518 29.115C44.1298 30.035 45.6478 31.346 46.7058 33.048C47.8098 34.75 48.3618 36.774 48.3618 39.12C48.3618 40.914 48.0398 42.57 47.3958 44.088C46.7518 45.606 45.8548 46.871 44.7048 47.883C43.5548 48.895 42.2438 49.654 40.7718 50.16V50.436C42.4278 50.804 43.9228 51.471 45.2568 52.437C46.5908 53.403 47.6488 54.691 48.4308 56.301C49.2588 57.865 49.6728 59.797 49.6728 62.097C49.6728 65.179 49.0288 67.663 47.7408 69.549C46.4528 71.435 44.7278 72.815 42.5658 73.689C40.4038 74.563 37.9198 75 35.1138 75H10.6878ZM17.2428 69.342H35.0448C37.3908 69.342 39.2998 68.744 40.7718 67.548C42.2438 66.306 42.9798 64.259 42.9798 61.407C42.9798 59.659 42.6578 58.21 42.0138 57.06C41.3698 55.864 40.4268 54.99 39.1848 54.438C37.9428 53.84 36.3788 53.541 34.4928 53.541H17.2428V69.342ZM17.2428 47.952H33.8718C35.4358 47.952 36.7928 47.653 37.9428 47.055C39.0928 46.411 39.9898 45.537 40.6338 44.433C41.3238 43.283 41.6688 41.995 41.6688 40.569C41.6688 38.085 41.0018 36.268 39.6678 35.118C38.3338 33.922 36.5628 33.324 34.3548 33.324H17.2428V47.952ZM53.0015 75V27.666H77.4275C80.1415 27.666 82.4875 28.149 84.4655 29.115C86.4435 30.035 87.9615 31.346 89.0195 33.048C90.1235 34.75 90.6755 36.774 90.6755 39.12C90.6755 40.914 90.3535 42.57 89.7095 44.088C89.0655 45.606 88.1685 46.871 87.0185 47.883C85.8685 48.895 84.5575 49.654 83.0855 50.16V50.436C84.7415 50.804 86.2365 51.471 87.5705 52.437C88.9045 53.403 89.9625 54.691 90.7445 56.301C91.5725 57.865 91.9865 59.797 91.9865 62.097C91.9865 65.179 91.3425 67.663 90.0545 69.549C88.7665 71.435 87.0415 72.815 84.8795 73.689C82.7175 74.563 80.2335 75 77.4275 75H53.0015ZM59.5565 69.342H77.3585C79.7045 69.342 81.6135 68.744 83.0855 67.548C84.5575 66.306 85.2935 64.259 85.2935 61.407C85.2935 59.659 84.9715 58.21 84.3275 57.06C83.6835 55.864 82.7405 54.99 81.4985 54.438C80.2565 53.84 78.6925 53.541 76.8065 53.541H59.5565V69.342ZM59.5565 47.952H76.1855C77.7495 47.952 79.1065 47.653 80.2565 47.055C81.4065 46.411 82.3035 45.537 82.9475 44.433C83.6375 43.283 83.9825 41.995 83.9825 40.569C83.9825 38.085 83.3155 36.268 81.9815 35.118C80.6475 33.922 78.8765 33.324 76.6685 33.324H59.5565V47.952Z" fill="white"/>
</svg>
