<svg width="439" height="866" viewBox="0 0 439 866" fill="none" xmlns="http://www.w3.org/2000/svg">
<line y1="-3" x2="76.5903" y2="-3" transform="matrix(0.709158 -0.70505 0.709158 0.70505 250.415 690)" stroke="#A2F1F9" stroke-width="6"/>
<path d="M301.712 652C310.549 652 317.712 644.837 317.712 636C317.712 627.163 310.549 620 301.712 620C292.876 620 285.712 627.163 285.712 636C285.712 644.837 292.876 652 301.712 652ZM301.712 102C310.549 102 317.712 94.8366 317.712 86C317.712 77.1634 310.549 70 301.712 70C292.876 70 285.712 77.1634 285.712 86C285.712 94.8366 292.876 102 301.712 102ZM304.712 636L304.712 86H298.712L298.712 636H304.712Z" fill="#A2F1F9"/>
<path d="M291.25 598.159C297.516 604.39 307.676 604.39 313.943 598.159C320.209 591.929 320.209 581.828 313.943 575.598C307.676 569.368 297.516 569.368 291.25 575.598C284.983 581.828 284.983 591.929 291.25 598.159ZM345.564 544.159C351.831 550.39 361.991 550.39 368.257 544.159C374.524 537.929 374.524 527.828 368.257 521.598C361.991 515.368 351.831 515.368 345.564 521.598C339.298 527.828 339.298 537.929 345.564 544.159ZM304.724 588.994L359.038 534.994L354.783 530.764L300.469 584.764L304.724 588.994Z" fill="#A2F1F9"/>
<line y1="-3" x2="76.5903" y2="-3" transform="matrix(0.709158 -0.70505 0.709158 0.70505 359.044 535)" stroke="#A2F1F9" stroke-width="6"/>
<path d="M410.342 497C401.505 497 394.342 489.837 394.342 481C394.342 472.163 401.505 465 410.342 465C419.178 465 426.342 472.163 426.342 481C426.342 489.837 419.178 497 410.342 497ZM410.342 278C401.505 278 394.342 270.837 394.342 262C394.342 253.163 401.505 246 410.342 246C419.178 246 426.342 253.163 426.342 262C426.342 270.837 419.178 278 410.342 278ZM407.342 481L407.342 262L413.342 262L413.342 481L407.342 481Z" fill="#A2F1F9"/>
<path d="M291.25 252.841C297.516 246.61 307.676 246.61 313.943 252.841C320.209 259.071 320.209 269.172 313.943 275.402C307.676 281.632 297.516 281.632 291.25 275.402C284.983 269.172 284.983 259.071 291.25 252.841ZM250.409 208.006L304.724 262.006L300.469 266.236L246.154 212.236L250.409 208.006Z" fill="#A2F1F9"/>
<path d="M291.25 144.841C297.516 138.61 307.676 138.61 313.943 144.841C320.209 151.071 320.209 161.172 313.943 167.402C307.676 173.632 297.516 173.632 291.25 167.402C284.983 161.172 284.983 151.071 291.25 144.841ZM304.724 154.006L413.353 262.006L409.098 266.236L300.469 158.236L304.724 154.006Z" fill="#A2F1F9"/>
<path d="M291.25 336.841C297.516 330.61 307.676 330.61 313.943 336.841C320.209 343.071 320.209 353.172 313.943 359.402C307.676 365.632 297.516 365.632 291.25 359.402C284.983 353.172 284.983 343.071 291.25 336.841ZM304.724 346.006L359.038 400.006L354.783 404.236L300.469 350.236L304.724 346.006Z" fill="#A2F1F9"/>
<line y1="-3" x2="76.5903" y2="-3" transform="matrix(0.709158 0.70505 0.709158 -0.70505 250.415 32)" stroke="#A2F1F9" stroke-width="6"/>
<path d="M209.581 645.159C203.314 651.39 193.154 651.39 186.888 645.159C180.621 638.929 180.621 628.828 186.888 622.598C193.154 616.368 203.314 616.368 209.581 622.598C215.847 628.828 215.847 638.929 209.581 645.159ZM250.421 689.994L196.107 635.994L200.362 631.764L254.676 685.764L250.421 689.994Z" fill="#A2F1F9"/>
<path d="M199.118 102C190.282 102 183.118 94.8366 183.118 86C183.118 77.1634 190.282 70 199.118 70C207.955 70 215.118 77.1634 215.118 86C215.118 94.8366 207.955 102 199.118 102ZM196.118 636L196.118 86H202.118L202.118 636H196.118Z" fill="#A2F1F9"/>
<path d="M209.581 598.159C203.314 604.39 193.154 604.39 186.888 598.159C180.621 591.929 180.621 581.828 186.888 575.598C193.154 569.368 203.314 569.368 209.581 575.598C215.847 581.828 215.847 591.929 209.581 598.159ZM155.266 544.159C149 550.39 138.84 550.39 132.573 544.159C126.307 537.929 126.307 527.828 132.573 521.598C138.84 515.368 149 515.368 155.266 521.598C161.533 527.828 161.533 537.929 155.266 544.159ZM196.107 588.994L141.792 534.994L146.047 530.764L200.362 584.764L196.107 588.994Z" fill="#A2F1F9"/>
<line y1="-3" x2="327" y2="-3" transform="matrix(4.39661e-08 -1 -1 -4.34582e-08 141.786 535)" stroke="#A2F1F9" stroke-width="6"/>
<path d="M155.266 490.159C149 496.39 138.84 496.39 132.573 490.159C126.307 483.929 126.307 473.828 132.573 467.598C138.84 461.368 149 461.368 155.266 467.598C161.533 473.828 161.533 483.929 155.266 490.159ZM100.952 436.159C94.6851 442.39 84.525 442.39 78.2585 436.159C71.992 429.929 71.992 419.828 78.2585 413.598C84.525 407.368 94.6851 407.368 100.952 413.598C107.218 419.828 107.218 429.929 100.952 436.159ZM141.792 480.994L87.4776 426.994L91.7325 422.764L146.047 476.764L141.792 480.994Z" fill="#A2F1F9"/>
<line y1="-3" x2="107" y2="-3" transform="matrix(4.39661e-08 -1 -1 -4.34582e-08 87.4713 427)" stroke="#A2F1F9" stroke-width="6"/>
<path d="M209.581 519.841C203.314 513.61 193.154 513.61 186.888 519.841C180.621 526.071 180.621 536.172 186.888 542.402C193.154 548.632 203.314 548.632 209.581 542.402C215.847 536.172 215.847 526.071 209.581 519.841ZM250.421 475.006L196.107 529.006L200.362 533.236L254.676 479.236L250.421 475.006Z" fill="#A2F1F9"/>
<path d="M155.266 256.841C149 250.61 138.84 250.61 132.573 256.841C126.307 263.071 126.307 273.172 132.573 279.402C138.84 285.632 149 285.632 155.266 279.402C161.533 273.172 161.533 263.071 155.266 256.841ZM100.952 310.841C94.6851 304.61 84.525 304.61 78.2585 310.841C71.992 317.071 71.992 327.172 78.2585 333.402C84.525 339.632 94.6851 339.632 100.952 333.402C107.218 327.172 107.218 317.071 100.952 310.841ZM141.792 266.006L87.4776 320.006L91.7325 324.236L146.047 270.236L141.792 266.006Z" fill="#A2F1F9"/>
<path d="M209.581 144.841C203.314 138.61 193.154 138.61 186.888 144.841C180.621 151.071 180.621 161.172 186.888 167.402C193.154 173.632 203.314 173.632 209.581 167.402C215.847 161.172 215.847 151.071 209.581 144.841ZM155.266 198.841C149 192.61 138.84 192.61 132.573 198.841C126.307 205.071 126.307 215.172 132.573 221.402C138.84 227.632 149 227.632 155.266 221.402C161.533 215.172 161.533 205.071 155.266 198.841ZM196.107 154.006L141.792 208.006L146.047 212.236L200.362 158.236L196.107 154.006Z" fill="#A2F1F9"/>
<path d="M209.581 336.841C203.314 330.61 193.154 330.61 186.888 336.841C180.621 343.071 180.621 353.172 186.888 359.402C193.154 365.632 203.314 365.632 209.581 359.402C215.847 353.172 215.847 343.071 209.581 336.841ZM155.266 390.841C149 384.61 138.84 384.61 132.573 390.841C126.307 397.071 126.307 407.172 132.573 413.402C138.84 419.632 149 419.632 155.266 413.402C161.533 407.172 161.533 397.071 155.266 390.841ZM196.107 346.006L141.792 400.006L146.047 404.236L200.362 350.236L196.107 346.006Z" fill="#A2F1F9"/>
<line y1="-3" x2="76.5903" y2="-3" transform="matrix(-0.709158 0.70505 -0.709158 -0.70505 250.415 32)" stroke="#A2F1F9" stroke-width="6"/>
<path d="M356.027 384C364.864 384 372.027 391.163 372.027 400C372.027 408.837 364.864 416 356.027 416C347.19 416 340.027 408.837 340.027 400C340.027 391.163 347.19 384 356.027 384ZM356.027 519C364.864 519 372.027 526.163 372.027 535C372.027 543.837 364.864 551 356.027 551C347.19 551 340.027 543.837 340.027 535C340.027 526.163 347.19 519 356.027 519ZM359.027 400L359.027 535L353.027 535L353.027 400L359.027 400Z" fill="#A2F1F9"/>
<path d="M243.915 7C243.915 3.41015 246.825 0.500004 250.415 0.500004C254.005 0.500004 256.915 3.41015 256.915 7L243.915 7ZM243.915 825L243.915 7L256.915 7L256.915 825L243.915 825Z" fill="#7787F9"/>
<path d="M250.415 698C241.579 698 234.415 690.837 234.415 682C234.415 673.163 241.579 666 250.415 666C259.252 666 266.415 673.163 266.415 682C266.415 690.837 259.252 698 250.415 698ZM247.415 825L247.415 682L253.415 682L253.415 825L247.415 825Z" fill="#7787F9"/>
<path d="M248.404 497C239.567 497 232.404 489.837 232.404 481C232.404 472.163 239.567 465 248.404 465C257.24 465 264.404 472.163 264.404 481C264.404 489.837 257.24 497 248.404 497ZM245.404 624L245.404 481L251.404 481L251.404 624L245.404 624Z" fill="#7787F9"/>
<path d="M250.415 227C241.579 227 234.415 219.837 234.415 211C234.415 202.163 241.579 195 250.415 195C259.252 195 266.415 202.163 266.415 211C266.415 219.837 259.252 227 250.415 227ZM247.415 354L247.415 211L253.415 211L253.415 354L247.415 354Z" fill="#7787F9"/>
<path d="M250.415 56C241.579 56 234.415 48.8366 234.415 40C234.415 31.1634 241.579 24 250.415 24C259.252 24 266.415 31.1634 266.415 40C266.415 48.8366 259.252 56 250.415 56ZM247.415 183L247.415 40L253.415 40L253.415 183L247.415 183Z" fill="#7787F9"/>
<path fill-rule="evenodd" clip-rule="evenodd" d="M410.342 848C347.31 824.333 183.83 791.2 34.1626 848C17.4005 854.361 6.28534 860.004 4.96991e-06 865H438.753C433.773 860.053 424.674 854.412 410.342 848Z" fill="#7787F9"/>
<path d="M231.646 835.713C229.22 828.891 213.566 819.417 206.042 815.533C171.571 817.608 105.782 822.5 118.384 825.468C130.987 828.437 155.221 852.655 165.762 864.393C188.734 857.676 234.071 842.535 231.646 835.713Z" fill="#AD1010"/>
<path d="M140.78 820.5C167.937 836.5 182.522 857.5 183.528 859L197.609 854C186.545 843 162.908 821 154.862 819L140.78 820.5Z" fill="#D9D9D9"/>
<path d="M169.949 818C197.106 834 208.171 848.5 209.176 850L222.755 844C211.691 833 190.066 819 182.019 817L169.949 818Z" fill="#D9D9D9"/>
<line y1="-1.5" x2="77.3121" y2="-1.5" transform="matrix(-0.364278 -0.93129 -0.932713 0.36062 151.178 859.243)" stroke="black" stroke-width="3"/>
<ellipse cx="50.2558" cy="19.5139" rx="50.2558" ry="19.5139" transform="matrix(-0.937616 0.347673 0.351237 0.936287 167.305 760)" fill="#CF9525"/>
<path d="M167.938 773.104C157.879 771.914 134.759 781.205 124.456 786L117.646 778.56" stroke="#B58323"/>
<path d="M124.184 787.5C110.907 813.1 110.941 819.167 112.617 819M124.184 787.5C110.438 791.667 82.6434 801.1 81.4364 805.5M124.184 787.5C160.394 790.3 166.429 794.667 164.92 796.5" stroke="#B58323"/>
<line y1="-1.5" x2="2.43713" y2="-1.5" transform="matrix(-0.412549 -0.910936 -0.912721 0.408582 124.021 788.464)" stroke="black" stroke-width="3"/>
</svg>
