<svg width="278" height="209" viewBox="0 0 278 209" fill="none" xmlns="http://www.w3.org/2000/svg">
<path d="M0.0833634 105.064V94.9801C9.1371 94.9801 15.453 93.0826 19.0312 89.2876C22.6635 85.4927 24.4797 79.1496 24.4797 70.2585V44.2358C24.4797 36.7543 25.1845 30.2757 26.594 24.8001C28.0578 19.3245 30.4161 14.7976 33.6689 11.2195C36.9218 7.64133 41.2589 4.98485 46.6803 3.25C52.1017 1.51514 58.7971 0.647716 66.7666 0.647716V16.5866C60.4778 16.5866 55.5172 17.5625 51.8849 19.5142C48.3067 21.4659 45.7587 24.5019 44.2407 28.6222C42.7769 32.6882 42.045 37.8927 42.045 44.2358V76.7642C42.045 80.9929 41.4758 84.8421 40.3373 88.3118C39.253 91.7815 37.22 94.7633 34.2382 97.2571C31.2564 99.7509 27.0006 101.676 21.4708 103.031C15.9952 104.386 8.86603 105.064 0.0833634 105.064ZM66.7666 208.83C58.7971 208.83 52.1017 207.962 46.6803 206.227C41.2589 204.492 36.9218 201.836 33.6689 198.258C30.4161 194.68 28.0578 190.153 26.594 184.677C25.1845 179.202 24.4797 172.723 24.4797 165.241V139.219C24.4797 130.328 22.6635 123.985 19.0312 120.19C15.453 116.395 9.1371 114.497 0.0833634 114.497V104.413C8.86603 104.413 15.9952 105.091 21.4708 106.446C27.0006 107.802 31.2564 109.726 34.2382 112.22C37.22 114.714 39.253 117.696 40.3373 121.165C41.4758 124.635 42.045 128.484 42.045 132.713V165.241C42.045 171.585 42.7769 176.789 44.2407 180.855C45.7587 184.921 48.3067 187.93 51.8849 189.882C55.5172 191.888 60.4778 192.891 66.7666 192.891V208.83ZM0.0833634 114.497V94.9801H19.2751V114.497H0.0833634ZM277.896 104.413V114.497C268.843 114.497 262.5 116.395 258.867 120.19C255.289 123.985 253.5 130.328 253.5 139.219V165.241C253.5 172.723 252.768 179.202 251.304 184.677C249.895 190.153 247.564 194.68 244.311 198.258C241.058 201.836 236.721 204.492 231.299 206.227C225.878 207.962 219.183 208.83 211.213 208.83V192.891C217.502 192.891 222.435 191.888 226.013 189.882C229.646 187.93 232.194 184.921 233.658 180.855C235.176 176.789 235.935 171.585 235.935 165.241V132.713C235.935 128.484 236.477 124.635 237.561 121.165C238.7 117.696 240.76 114.714 243.741 112.22C246.723 109.726 250.952 107.802 256.428 106.446C261.957 105.091 269.114 104.413 277.896 104.413ZM211.213 0.647716C219.183 0.647716 225.878 1.51514 231.299 3.25C236.721 4.98485 241.058 7.64133 244.311 11.2195C247.564 14.7976 249.895 19.3245 251.304 24.8001C252.768 30.2757 253.5 36.7543 253.5 44.2358V70.2585C253.5 79.1496 255.289 85.4927 258.867 89.2876C262.5 93.0826 268.843 94.9801 277.896 94.9801V105.064C269.114 105.064 261.957 104.386 256.428 103.031C250.952 101.676 246.723 99.7509 243.741 97.2571C240.76 94.7633 238.7 91.7815 237.561 88.3118C236.477 84.8421 235.935 80.9929 235.935 76.7642V44.2358C235.935 37.8927 235.176 32.6882 233.658 28.6222C232.194 24.5019 229.646 21.4659 226.013 19.5142C222.435 17.5625 217.502 16.5866 211.213 16.5866V0.647716ZM277.896 94.9801V114.497H258.705V94.9801H277.896Z" fill="black"/>
<path d="M139.5 24L194.493 165.75H84.5074L139.5 24Z" fill="#FC4F00"/>
<path d="M111 103H167" stroke="white" stroke-width="20" stroke-linecap="round"/>
<path d="M66 166H212" stroke="black" stroke-width="14" stroke-linecap="round"/>
<path d="M111 93H167" stroke="black" stroke-width="14" stroke-linecap="round"/>
<path d="M101 119L177 119" stroke="black" stroke-width="14" stroke-linecap="round"/>
<path d="M139 24L194.768 162.631" stroke="black" stroke-width="14" stroke-linecap="round"/>
<path d="M138.768 24L83 162.631" stroke="black" stroke-width="14" stroke-linecap="round"/>
</svg>
