<svg width="100" height="100" viewBox="0 0 100 100" fill="none" xmlns="http://www.w3.org/2000/svg">
<path d="M32.7411 100H6.44302L2.0845 91.1434C-3.31386 80.1739 2.13463 67.3203 14.2541 62.4341L32.7411 100Z" fill="currentColor"/>
<path d="M61.2118 100H34.9137L15.7886 61.1374C10.3902 50.1679 15.8387 37.3143 27.9581 32.4282L61.2118 100Z" fill="currentColor"/>
<path d="M52.9972 0C49.573 0 46.0945 0.635275 42.7662 1.97711C30.0371 7.10909 24.3261 20.633 30.0104 32.1835C35.6947 43.7341 50.6217 48.9373 63.3509 43.8053C76.08 38.6734 81.791 25.1495 76.1067 13.599C71.9087 5.06847 62.6693 0 52.9972 0Z" fill="currentColor"/>
<path d="M85.0442 87.8865C97.7734 82.7546 103.484 69.2307 97.8001 57.6801C92.1158 46.1296 77.1887 40.9263 64.4596 46.0583C51.7304 51.1903 46.0194 64.7141 51.7037 76.2647C57.388 87.8152 72.3151 93.0185 85.0442 87.8865Z" fill="currentColor"/>
</svg>
